<?xml version="1.0" encoding="utf-8"?>
<!-- Generator: Adobe Illustrator 19.2.1, SVG Export Plug-In . SVG Version: 6.00 Build 0)  -->
<svg version="1.1" id="Layer_1" xmlns="http://www.w3.org/2000/svg" xmlns:xlink="http://www.w3.org/1999/xlink" x="0px" y="0px"
	 viewBox="0 0 134 70" style="enable-background:new 0 0 134 70;" xml:space="preserve">
<style type="text/css">
	.st0{fill:#E78B21;}
	.st1{fill:#FFFFFF;}
</style>
<g>
	<path class="st0" d="M133,57.4c-7.4-29-33.7-50.4-64.9-50.4c-17.9,0-34.1,7-46.1,18.4C33.1,10,51.3,0,71.7,0
		C104.3,0,130.9,25.3,133,57.4"/>
	<path class="st1" d="M120.3,63.7c-1.6,0-2.5,1.2-2.5,2.6c0,1.3,0.8,1.9,2,1.9c1.5,0,2.4-1.2,2.4-2.6
		C122.2,64.4,121.5,63.7,120.3,63.7z M119.8,67.6c-0.8,0-1.1-0.5-1.1-1.2c0-0.9,0.5-2,1.6-2c0.7,0,1.1,0.6,1.1,1.2
		C121.4,66.6,120.7,67.6,119.8,67.6z"/>
	<path class="st1" d="M108.2,54.9c0-1,0.4-1.8,1.3-1.8c0.7,0,0.9,0.5,0.9,1.5l0,2.2h0.8l0-2.6c0-1.2-0.5-1.8-1.6-1.8
		c-0.6,0-1.2,0.3-1.4,0.8h0v-0.7h-0.8l0,4.3h0.8V54.9z"/>
	<path class="st1" d="M108.2,66.2c0-0.3,0.1-0.5,0.1-0.8c0-1-0.6-1.6-1.6-1.6c-1.5,0-2.3,1.4-2.4,2.6c0,1.5,0.9,1.9,2,1.9
		c0.4,0,0.9-0.1,1.3-0.2l0.1-0.7c-0.4,0.2-0.8,0.3-1.2,0.3c-0.8,0-1.3-0.3-1.3-1.2c0-0.1,0-0.2,0-0.3H108.2z M106.6,64.4
		c0.6,0,0.9,0.4,0.9,0.9c0,0.1,0,0.2,0,0.3h-2.2C105.4,64.9,105.9,64.4,106.6,64.4z"/>
	<path class="st1" d="M104.8,56.9v-2c0-1.1,0.5-1.8,1.2-1.8c0.1,0,0.3,0,0.4,0.1l0-0.7c-0.2,0-0.3-0.1-0.5-0.1
		c-0.5,0-0.9,0.3-1.1,0.8h0v-0.7H104v4.3H104.8z"/>
	<polygon class="st1" points="100.3,63 102.1,63 101,68.1 101.9,68.1 103,63 104.8,63 105,62.2 100.5,62.2 	"/>
	<path class="st1" d="M102.5,56v-1.8c0-1.2-0.5-1.8-1.7-1.8c-0.5,0-1,0.2-1.4,0.4l0,0.7c0.3-0.3,0.8-0.4,1.3-0.4
		c0.8,0,1.1,0.4,1.1,1.1c-0.3,0-0.5,0-0.8,0c-0.8,0-2,0.3-2,1.4c0,0.9,0.6,1.3,1.6,1.3c0.7,0,1.1-0.4,1.3-0.7h0l0,0.6h0.7
		C102.5,56.8,102.5,56.5,102.5,56z M101.7,55.2c0,0.6-0.4,1.1-1.2,1.1c-0.4,0-0.8-0.2-0.8-0.7c0-0.8,1.1-0.8,1.5-0.8
		c0.2,0,0.3,0,0.5,0V55.2z"/>
	<path class="st1" d="M94.8,54.9h3.1c0-1.4-0.5-2.4-1.9-2.4c-1.2,0-2,0.9-2,2.2c0,1.4,0.7,2.3,2.2,2.3c0.7,0,1.1-0.2,1.4-0.3v-0.8
		c-0.2,0.2-0.8,0.4-1.3,0.4C95.5,56.4,94.8,55.8,94.8,54.9z M96,53.1c0.7,0,1.1,0.5,1.1,1.2h-2.2C94.9,53.8,95.2,53.1,96,53.1z"/>
	<polygon class="st1" points="96,62.9 96.9,62.9 97.1,62 96.2,62 	"/>
	<polygon class="st1" points="95.9,63.8 94.9,68.1 95.7,68.1 96.6,63.8 	"/>
	<path class="st1" d="M85.4,52.6v-0.5c0-0.6,0.1-1,0.8-1c0.1,0,0.3,0,0.4,0.1l0-0.6c-0.2,0-0.3-0.1-0.5-0.1c-1.2,0-1.4,0.7-1.4,1.7
		v0.4h-1v0.6h1l0,3.7h0.8v-3.7h1.1v-0.6H85.4z"/>
	<path class="st1" d="M83.9,63.7c-0.3,0-0.8,0.1-1.2,0.2l-0.1,0.8c0.4-0.2,0.9-0.4,1.3-0.4c0.6,0,1,0.2,1,0.9c0,0.1,0,0.2,0,0.3
		c-0.2,0-0.4,0-0.6,0c-1.4,0-2.5,0.3-2.5,1.6c0,0.8,0.6,1.2,1.4,1.2c0.6,0,1.1-0.3,1.4-0.8h0l-0.1,0.7h0.7c0.1-0.8,0.3-1.6,0.4-2.4
		c0-0.2,0.1-0.5,0.1-0.7C85.6,64.1,84.8,63.7,83.9,63.7z M83.3,67.6c-0.4,0-0.7-0.2-0.7-0.6c0-0.8,0.9-0.9,1.5-0.9h0.6
		C84.6,66.8,84.1,67.6,83.3,67.6z"/>
	<path class="st1" d="M80.7,52.5c-1.3,0-2.2,0.9-2.2,2.2c0,1.2,0.9,2.3,2.2,2.3c1.3,0,2.2-1,2.2-2.3C82.9,53.4,82,52.5,80.7,52.5z
		 M80.7,56.4c-0.9,0-1.3-0.8-1.3-1.6c0-0.8,0.5-1.6,1.3-1.6c0.8,0,1.3,0.8,1.3,1.6C82,55.5,81.6,56.4,80.7,56.4z"/>
	<path class="st1" d="M80.4,63.8l-0.2,0.8h0c-0.2-0.6-0.8-0.9-1.4-0.9c-1.2,0-2.2,1.1-2.2,2.7c0,1.1,0.8,1.7,1.6,1.7
		c0.7,0,1-0.2,1.3-0.5h0l-0.1,0.5c-0.2,0.7-0.6,1.3-1.5,1.3c-0.5,0-1-0.2-1.4-0.4l-0.2,0.7c0.5,0.2,1.2,0.3,1.4,0.3
		c1.3,0,2.1-0.7,2.3-1.6l1-4.6H80.4z M78.4,67.5c-0.7,0-1-0.6-1-1.1c0-0.8,0.4-2,1.4-2c0.7,0,1.1,0.5,1.1,1.2
		C79.9,66.9,79.1,67.5,78.4,67.5z"/>
	<path class="st1" d="M71.9,64.5l-0.8,3.6h0.8l0.5-2.2c0.1-0.5,0.6-1.6,1.6-1.6c0.5,0,0.8,0.3,0.8,0.8c0,0.1,0,0.3,0,0.4l-0.5,2.6
		H75l0.5-2.3c0.1-0.2,0.1-0.5,0.1-0.8c0-0.9-0.6-1.3-1.4-1.3c-0.8,0-1.2,0.4-1.5,0.8h0l0.1-0.7H72C72,64.1,71.9,64.3,71.9,64.5"/>
	<path class="st1" d="M72.2,54.9h3.1c0-1.4-0.5-2.4-1.9-2.4c-1.2,0-2,0.9-2,2.2c0,1.4,0.7,2.3,2.2,2.3c0.7,0,1.1-0.2,1.4-0.3v-0.8
		c-0.2,0.2-0.8,0.4-1.3,0.4C72.9,56.4,72.2,55.8,72.2,54.9z M73.4,53.1c0.7,0,1.1,0.5,1.1,1.2h-2.2C72.3,53.8,72.6,53.1,73.4,53.1z"
		/>
	<path class="st1" d="M68.5,63.7c-0.3,0-0.8,0.1-1.2,0.2l-0.1,0.8c0.4-0.2,0.9-0.4,1.3-0.4c0.6,0,1,0.2,1,0.9c0,0.1,0,0.2,0,0.3
		c-0.2,0-0.4,0-0.6,0c-1.4,0-2.5,0.3-2.5,1.6c0,0.8,0.7,1.2,1.4,1.2c0.6,0,1.1-0.3,1.4-0.8h0l-0.1,0.7h0.7c0.1-0.8,0.3-1.6,0.4-2.4
		c0-0.2,0.1-0.5,0.1-0.7C70.2,64.1,69.3,63.7,68.5,63.7z M67.8,67.6c-0.4,0-0.7-0.2-0.7-0.6c0-0.8,0.9-0.9,1.5-0.9h0.6
		C69.1,66.8,68.6,67.6,67.8,67.6z"/>
	<path class="st1" d="M69.3,52.6l0,0.6h0c-0.2-0.5-0.7-0.7-1.4-0.7c-1.3,0-1.9,1.2-1.9,2.3c0,1.1,0.6,2.1,1.8,2.1
		c0.5,0,1.1-0.2,1.4-0.7h0v0.4c0,0.9-0.5,1.5-1.3,1.5c-0.6,0-0.9-0.1-1.6-0.4l-0.1,0.7c0.7,0.2,1.1,0.3,1.5,0.3
		c1.5,0,2.2-0.7,2.2-2.1v-4.1H69.3z M68,56.3c-0.7,0-1.2-0.7-1.2-1.5c0-0.7,0.4-1.6,1.2-1.6c0.8,0,1.3,0.8,1.3,1.7
		C69.3,55.6,68.8,56.3,68,56.3z"/>
	<path class="st1" d="M63.6,64.5l-0.8,3.6h0.8l0.4-2.1c0.1-0.5,0.6-1.6,1.6-1.6c0.1,0,0.2,0,0.3,0.1l0.2-0.7
		c-0.2-0.1-0.3-0.1-0.4-0.1c-0.8,0-1.2,0.4-1.5,0.8h0l0.1-0.7h-0.7C63.7,64.1,63.6,64.3,63.6,64.5"/>
	<path class="st1" d="M54.9,63.7c-0.3,0-0.8,0.1-1.2,0.2l-0.1,0.8c0.4-0.2,0.8-0.4,1.3-0.4c0.6,0,1,0.2,1,0.9c0,0.1,0,0.2,0,0.3
		c-0.2,0-0.4,0-0.6,0c-1.4,0-2.5,0.3-2.5,1.6c0,0.8,0.6,1.2,1.4,1.2c0.6,0,1.1-0.3,1.4-0.8h0l-0.1,0.7H56c0.1-0.8,0.3-1.6,0.4-2.4
		c0-0.2,0.1-0.5,0.1-0.7C56.6,64.1,55.7,63.7,54.9,63.7z M54.2,67.6c-0.4,0-0.7-0.2-0.7-0.6c0-0.8,0.9-0.9,1.5-0.9h0.6
		C55.5,66.8,55,67.6,54.2,67.6z"/>
	<rect x="56.5" y="50.6" class="st1" width="0.8" height="6.3"/>
	<path class="st1" d="M52.9,52.5c-1.3,0-2.2,0.9-2.2,2.2c0,1.2,0.9,2.3,2.2,2.3c1.3,0,2.2-1,2.2-2.3C55.1,53.4,54.3,52.5,52.9,52.5z
		 M52.9,56.4c-0.9,0-1.4-0.8-1.4-1.6c0-0.8,0.5-1.6,1.4-1.6c0.8,0,1.3,0.8,1.3,1.6C54.3,55.5,53.9,56.4,52.9,56.4z"/>
	<path class="st1" d="M49.4,64.5h0.9L50,66.3c-0.1,0.2-0.2,0.7-0.2,1c0,0.5,0.3,1,1,1c0.2,0,0.6,0,0.8-0.1l0.1-0.7
		c-0.2,0.1-0.4,0.1-0.6,0.1c-0.4,0-0.6-0.2-0.6-0.5c0-0.2,0.1-0.6,0.1-0.8l0.4-1.8h1.2l0.1-0.6h-1.2l0.3-1.3l-0.8,0.3l-0.2,1h-1
		L49.4,64.5z"/>
	<path class="st1" d="M48.6,57c0.3,0,0.9,0,1.3-0.2L49.9,56c-0.3,0.2-0.9,0.3-1.3,0.3c-1.2,0-2.2-0.9-2.2-2.3c0-1.3,0.9-2.3,2.3-2.3
		c0.4,0,0.8,0.1,1.2,0.3l0.1-0.8c-0.4-0.2-0.9-0.3-1.3-0.3c-1.8,0-3.1,1.2-3.1,3C45.5,55.8,46.7,57,48.6,57"/>
	<polygon class="st1" points="48.1,62.5 46,62.5 45.9,63.1 48,63.1 	"/>
	<path class="st1" d="M46.6,63.7c-0.3,0-0.8,0.1-1.2,0.2l-0.1,0.8c0.4-0.2,0.8-0.4,1.3-0.4c0.6,0,1,0.2,1,0.9c0,0.1,0,0.2,0,0.3
		c-0.2,0-0.4,0-0.6,0c-1.4,0-2.5,0.3-2.5,1.6c0,0.8,0.6,1.2,1.4,1.2c0.6,0,1.1-0.3,1.4-0.8h0L47,68.1h0.7c0.1-0.8,0.3-1.6,0.4-2.4
		c0-0.2,0.1-0.5,0.1-0.7C48.3,64.1,47.4,63.7,46.6,63.7z M45.9,67.6c-0.4,0-0.7-0.2-0.7-0.6c0-0.8,0.9-0.9,1.5-0.9h0.6
		C47.2,66.8,46.7,67.6,45.9,67.6z"/>
	<polygon class="st1" points="37.7,62.2 36.3,68.1 37.1,68.1 38.3,63.1 38.3,63.1 39.1,68.1 39.9,68.1 42.9,63.1 43,63.1 41.9,68.1 
		42.7,68.1 44,62.2 42.6,62.2 39.7,67.1 38.9,62.2 	"/>
	<rect x="41" y="50.6" class="st1" width="0.8" height="6.3"/>
	<path class="st1" d="M39.5,56.9c0-0.1,0-0.4,0-0.8v-1.8c0-1.2-0.5-1.8-1.7-1.8c-0.5,0-1,0.2-1.4,0.4l0,0.7c0.3-0.3,0.8-0.4,1.2-0.4
		c0.8,0,1.1,0.4,1.1,1.1c-0.3,0-0.5,0-0.8,0c-0.8,0-2,0.3-2,1.4c0,0.9,0.6,1.3,1.6,1.3c0.7,0,1.1-0.4,1.3-0.7h0v0.6H39.5z
		 M38.6,55.2c0,0.6-0.4,1.1-1.2,1.1c-0.4,0-0.8-0.2-0.8-0.7c0-0.8,1.1-0.8,1.5-0.8c0.2,0,0.3,0,0.5,0V55.2z"/>
	<path class="st1" d="M33,66.2c0-0.3,0.1-0.5,0.1-0.8c0-1-0.6-1.6-1.6-1.6c-1.5,0-2.4,1.4-2.4,2.6c0,1.5,0.9,1.9,2,1.9
		c0.4,0,0.9-0.1,1.3-0.2l0.1-0.7c-0.4,0.2-0.8,0.3-1.2,0.3c-0.8,0-1.3-0.3-1.3-1.2c0-0.1,0-0.2,0-0.3H33z M31.3,64.4
		c0.6,0,0.9,0.4,0.9,0.9c0,0.1,0,0.2,0,0.3H30C30.2,64.9,30.7,64.4,31.3,64.4z"/>
	<path class="st1" d="M29.7,52.6h-0.7v4.3h0.8v-2c0-1.1,0.5-1.8,1.2-1.8c0.1,0,0.3,0,0.4,0.1v-0.7c-0.2,0-0.3-0.1-0.5-0.1
		c-0.5,0-0.9,0.3-1.1,0.8h0V52.6z"/>
	<path class="st1" d="M26.2,63.7c-0.3,0-0.8,0.1-1.2,0.2l-0.1,0.8c0.4-0.2,0.8-0.4,1.3-0.4c0.6,0,1,0.2,1,0.9c0,0.1,0,0.2,0,0.3
		c-0.2,0-0.4,0-0.6,0c-1.4,0-2.5,0.3-2.5,1.6c0,0.8,0.6,1.2,1.4,1.2c0.6,0,1.1-0.3,1.4-0.8h0l-0.1,0.7h0.7c0.1-0.8,0.3-1.6,0.4-2.4
		c0-0.2,0.1-0.5,0.1-0.7C28,64.1,27.1,63.7,26.2,63.7z M25.6,67.6c-0.4,0-0.7-0.2-0.7-0.6c0-0.8,0.9-0.9,1.5-0.9H27
		C26.9,66.8,26.4,67.6,25.6,67.6z"/>
	<path class="st1" d="M24.6,54.9h3.1c0-1.4-0.5-2.4-1.9-2.4c-1.2,0-2,0.9-2,2.2c0,1.4,0.7,2.3,2.2,2.3c0.7,0,1.1-0.2,1.4-0.3v-0.8
		c-0.2,0.2-0.8,0.4-1.3,0.4C25.2,56.4,24.6,55.8,24.6,54.9z M25.7,53.1c0.7,0,1.1,0.5,1.1,1.2h-2.2C24.6,53.8,24.9,53.1,25.7,53.1z"
		/>
	<polygon class="st1" points="27.7,62.5 25.6,62.5 25.5,63.1 27.6,63.1 	"/>
	<path class="st1" d="M22,62.2h-1.5l-1.3,5.9h0.8l0.5-2.4h0.8c1.6,0,2.4-0.8,2.4-2C23.9,62.6,22.9,62.2,22,62.2z M21.2,65h-0.4
		l0.4-2h0.4c0.7,0,1.3,0.1,1.3,0.9C23,64.9,22.1,65,21.2,65z"/>
	<polygon class="st1" points="19.9,52.6 19.1,52.6 20.6,56.9 21.6,56.9 23.1,52.6 22.3,52.6 21.1,56.1 21.1,56.1 	"/>
	<rect x="17.2" y="52.6" class="st1" width="0.8" height="4.3"/>
	<rect x="17.2" y="50.7" class="st1" width="0.9" height="0.9"/>
	<path class="st1" d="M16,66.2c0-0.3,0.1-0.5,0.1-0.8c0-1-0.6-1.6-1.6-1.6c-1.5,0-2.3,1.4-2.4,2.6c0,1.5,0.9,1.9,2,1.9
		c0.4,0,0.9-0.1,1.3-0.2l0.1-0.7c-0.4,0.2-0.8,0.3-1.2,0.3c-0.8,0-1.3-0.3-1.3-1.2c0-0.1,0-0.2,0-0.3H16z M14.3,64.4
		c0.6,0,0.9,0.4,0.9,0.9c0,0.1,0,0.2,0,0.3H13C13.2,64.9,13.7,64.4,14.3,64.4z"/>
	<path class="st1" d="M12.6,56.9v-2c0-1,0.4-1.8,1.3-1.8c0.7,0,0.9,0.5,0.9,1.5v2.2h0.8l0-2.6c0-1.2-0.5-1.8-1.6-1.8
		c-0.6,0-1.2,0.3-1.4,0.8h0l0-0.7h-0.8l0,4.3H12.6z"/>
	<polygon class="st1" points="8.1,63 9.9,63 8.8,68.1 9.7,68.1 10.8,63 12.6,63 12.7,62.2 8.2,62.2 	"/>
	<path class="st1" d="M6.5,51H5.7l0,3.4C5.7,56.1,6.5,57,8,57c1.4,0,2.3-0.9,2.3-2.5l0-3.4H9.4v3.3c0,1.1-0.4,1.9-1.4,1.9
		c-1.1,0-1.4-0.8-1.4-1.9V51z"/>
	<path class="st1" d="M33.1,12.2c0-0.5-0.5-0.6-1.3-0.6h-7.5c-0.3,0-0.8,0.1-0.8,0.6c0,1.4,4.2,0,4.2,4.6l0,16.9
		c0,5.6-3.8,8.4-8.4,8.4c-4.7,0-8.4-3.4-8.4-8.1l0-17.2c0-4.6,4.2-3.2,4.2-4.6c0-0.5-0.5-0.6-0.8-0.6H0.8c-0.3,0-0.8,0.1-0.8,0.6
		c0,1.4,4.2,0,4.2,4.6l0,16.4c0,6.7,5.4,11.7,12.1,11.7l1.6,0c6.8,0,12.4-4.2,12.4-12l0-4l0-13.6C30.2,12.4,33.1,13.6,33.1,12.2"/>
	<path class="st1" d="M34.6,52.7c-0.3-0.1-0.6-0.2-1-0.2c-0.9,0-1.5,0.4-1.5,1.3c0,1.2,1.9,1.1,1.9,1.9c0,0.5-0.4,0.6-0.8,0.6
		c-0.2,0-0.7-0.1-1-0.3l0,0.7c0.4,0.2,0.8,0.2,1.2,0.2c0.8,0,1.5-0.4,1.5-1.3c0-1.4-1.9-1.1-1.9-2c0-0.4,0.4-0.5,0.8-0.5
		c0.2,0,0.7,0.1,0.8,0.2L34.6,52.7z"/>
	<path class="st1" d="M57.4,38c0.6-0.9,0.8-1.8,0.7-2.1c-0.1-0.5-0.4-0.4-0.6-0.4c-0.3,0.1-0.7,0.7-1.3,1.3c-0.7,0.8-1.4,1.5-2,2
		c-1.6,1.2-3.3,2-5.4,2c-3,0-5.3-1.1-7.1-3.3c-1.7-2.2-2.6-4.7-2.6-7.4c0-3,0.8-5.4,2.4-7.3c1.6-1.8,3.5-2.7,5.8-2.7
		c1.1,0,2,0.2,2.6,0.6c0.6,0.4,1.4,1.1,1.7,2l0.4,1.3c0.2,0.8,0.6,1.5,1.2,1.9c0.5,0.4,1.2,0.7,1.9,0.7c1,0,1.3-0.2,1.8-0.8
		c0.5-0.5,0.7-1.1,0.7-1.7c0-1.4-0.9-2.7-2.7-3.9c-1.8-1.2-4-1.8-6.5-1.8c-4,0-7.4,1.4-10,4.1c-2.6,2.7-4,6-4,9.8
		c0,3.9,1.2,6.9,3.6,9.2c2.4,2.3,5.2,3.4,8.3,3.4c3.2,0,6-1.2,8.5-3.7C55.7,40.5,56.9,39,57.4,38"/>
	<rect x="58.9" y="50.6" class="st1" width="0.8" height="6.3"/>
	<path class="st1" d="M61.4,63.8L60.9,66c-0.1,0.5-0.6,1.6-1.6,1.6c-0.5,0-0.8-0.3-0.8-0.8c0-0.1,0-0.3,0-0.4l0.5-2.6h-0.8l-0.5,2.3
		c0,0.2-0.1,0.5-0.1,0.8c0,0.9,0.6,1.3,1.4,1.3c0.8,0,1.2-0.4,1.5-0.8h0l-0.1,0.7h0.7c0-0.3,0.1-0.5,0.1-0.7l0.7-3.6H61.4z"/>
	<path class="st1" d="M61.9,54.9H65c0-1.4-0.5-2.4-1.9-2.4c-1.2,0-2,0.9-2,2.2c0,1.4,0.7,2.3,2.2,2.3c0.7,0,1.1-0.2,1.4-0.3v-0.8
		c-0.2,0.2-0.8,0.4-1.3,0.4C62.5,56.4,61.9,55.8,61.9,54.9z M63,53.1c0.7,0,1.1,0.5,1.1,1.2h-2.2C61.9,53.8,62.3,53.1,63,53.1z"/>
	<path class="st1" d="M84.5,22.1c-2.6-2.4-5.9-3.5-9.8-3.5c-4,0-7.2,1.2-9.8,3.7c-2.5,2.5-3.8,5.6-3.8,9.2c0,3.9,1.3,7.1,4,9.6
		c2.7,2.6,5.9,3.8,9.7,3.8c4,0,7.3-1.3,9.8-4c2.5-2.7,3.8-5.8,3.8-9.4C88.4,27.6,87.1,24.5,84.5,22.1z M81,40.6
		c-1.2,1.9-2.9,2.8-5.2,2.8c-2.9,0-5.1-1.4-6.7-4.2c-1.6-2.8-2.4-5.8-2.4-9c0-4.1,1-6.9,3-8.6c1.2-0.9,2.5-1.4,4.1-1.4
		c2.9,0,5.1,1.4,6.7,4.2c1.5,2.8,2.3,5.7,2.3,8.9C82.9,36.3,82.3,38.8,81,40.6z"/>
	<polygon class="st1" points="90.5,62.2 89.2,68.1 90.1,68.1 90.6,65.3 92.8,68.1 93.9,68.1 91.5,65.1 94.7,62.2 93.6,62.2 
		90.8,64.9 90.7,64.8 91.3,62.2 	"/>
	<polygon class="st1" points="93.2,56.2 90.7,56.2 90.8,51 89.9,51 89.9,56.9 93.2,56.9 	"/>
	<path class="st1" d="M112.7,41.3c0.4-1.4,0.5-2.3,0.5-2.7c-0.1-0.5-0.6-0.3-0.7-0.2c-0.1,0-0.2,0.2-0.3,0.3l0,0.1
		c-0.5,0.9-1,1.6-1.5,2.1c-0.8,0.8-1.7,1.4-2.7,1.7c-0.7,0.2-1.9,0.4-3.5,0.5h-1.3c-1.4,0-2.5-0.1-3.2-0.7c-0.8-0.5-1-1.5-1-3.9
		l0-16.6c0-2.3,2.2-1.4,2.2-2.5c0-0.4-0.4-0.5-1-0.5h-8.7c-0.2,0-0.6,0.1-0.6,0.5c0,1.1,3.2,0,3.2,3.5v17.7c0,3.5-3.2,2.4-3.2,3.5
		c0,0.4,0.4,0.5,0.6,0.5l18.8,0c0.6,0,1.1-0.3,1.4-0.8C112,43.4,112.4,42.7,112.7,41.3"/>
	<rect x="112.8" y="50.7" class="st1" width="0.9" height="0.9"/>
	<rect x="112.8" y="52.6" class="st1" width="0.8" height="4.3"/>
	<path class="st1" d="M115.6,62.2h-0.8l-3.8,5.9h0.9l0.9-1.5h2.9l0.3,1.5h0.9L115.6,62.2z M113.2,66l1.8-2.8l0.6,2.8H113.2z"/>
	<path class="st1" d="M116,53.3L116,53.3l0-0.7h-0.8l0,4.3h0.8v-2c0-1,0.4-1.8,1.3-1.8c0.7,0,0.9,0.5,0.9,1.5v2.2h0.8v-2.6
		c0-1.2-0.5-1.8-1.6-1.8C116.8,52.5,116.2,52.8,116,53.3"/>
	<path class="st1" d="M123.6,52.6l0,0.6h0c-0.2-0.5-0.7-0.7-1.4-0.7c-1.3,0-1.9,1.2-1.9,2.3c0,1.1,0.6,2.1,1.8,2.1
		c0.5,0,1.1-0.2,1.4-0.7h0l0,0.4c0,0.9-0.5,1.5-1.3,1.5c-0.6,0-0.9-0.1-1.6-0.4l-0.1,0.7c0.7,0.2,1.1,0.3,1.5,0.3
		c1.5,0,2.2-0.7,2.2-2.1v-4.1H123.6z M122.3,56.3c-0.7,0-1.2-0.7-1.2-1.5c0-0.7,0.4-1.6,1.2-1.6c0.8,0,1.3,0.8,1.3,1.7
		C123.6,55.6,123,56.3,122.3,56.3z"/>
	<path class="st1" d="M118.6,38.7c-1.5,0-2.7,1.2-2.7,2.7c0,1.5,1.2,2.7,2.7,2.7c1.5,0,2.7-1.2,2.7-2.7
		C121.3,39.9,120.1,38.7,118.6,38.7z M118.6,43.8c-1.3,0-2.4-1.1-2.4-2.4c0-1.3,1.1-2.4,2.4-2.4c1.3,0,2.4,1.1,2.4,2.4
		C121,42.7,119.9,43.8,118.6,43.8z"/>
	<path class="st1" d="M119,41.7c-0.1-0.2-0.1-0.3-0.4-0.3v0c0.3,0,0.6-0.3,0.6-0.6c0-0.5-0.3-0.7-0.8-0.7h-0.7v2.7h0.3v-1.3h0.2
		c0.3,0,0.4,0,0.5,0.4l0.4,0.9h0.3L119,41.7z M118,41.3v-1h0.3c0.4,0,0.7,0,0.7,0.5c0,0.4-0.4,0.5-0.7,0.5H118z"/>
</g>
</svg>
